<svg height="496pt" viewBox="0 0 496 496" width="496pt" xmlns="http://www.w3.org/2000/svg"><path d="m248 129.078125 58.894531-49.078125h77.105469v-80h-192v80h56zm-40-65.078125v-48h160v48h-66.894531l-37.105469 30.921875v-30.921875zm0 0"/><path d="m224 32h16v16h-16zm0 0"/><path d="m256 32h64v16h-64zm0 0"/><path d="m336 32h16v16h-16zm0 0"/><path d="m407.238281 480-6.46875-64.761719c26.710938-4.222656 47.230469-27.351562 47.230469-55.238281v-104h-32v-11.054688c0-10.875-5.976562-20.640624-15.585938-25.648437 9.554688-8.777344 15.585938-21.328125 15.585938-35.296875v-16c0-26.472656-21.527344-48-48-48s-48 21.527344-48 48v16c0 20.710938 13.207031 38.34375 31.625 45.0625l-42.9375 42.9375h-44.863281c-.894531-13.335938-10.054688-24.960938-23.03125-28.671875l-32.792969-9.359375v-14.289062c9.792969-8.792969 16-21.503907 16-35.679688v-16c0-26.472656-21.527344-48-48-48s-48 21.527344-48 48v16c0 14.167969 6.207031 26.878906 16 35.679688v14.296874l-32.792969 9.359376c-13.664062 3.894531-23.207031 16.550781-23.207031 30.769531v29.894531h-32v48h16v128h-72v16h496v-16zm-71.238281-128v-36.6875l56.6875-56.6875c4.097656-4.097656 6.535156-9.601562 7.082031-15.34375.070313.558594.230469 1.085938.230469 1.664062v99.054688c0 13.230469-10.769531 24-24 24h-64v-16zm-24 64h40.761719l6.398437 64h-47.160156zm56.839844 0h15.921875l6.398437 64h-15.921875zm47.160156-72v-72h16v88c0 22.054688-17.945312 40-40 40h-80v-16h64c22.054688 0 40-17.945312 40-40zm-80-160v-16c0-17.648438 14.351562-32 32-32s32 14.351562 32 32v16c0 17.648438-14.351562 32-32 32s-32-14.351562-32-32zm-20.6875 104 53.375-53.375c1.671875-1.671875 3.984375-2.625 6.34375-2.625 4.945312 0 8.96875 4.023438 8.96875 8.96875 0 2.359375-.953125 4.671875-2.625 6.34375l-56.6875 56.6875h-84.6875c-4.414062 0-8-3.585938-8-8s3.585938-8 8-8zm-171.3125-120c0-17.648438 14.351562-32 32-32s32 14.351562 32 32v16c0 17.648438-14.351562 32-32 32s-32-14.351562-32-32zm32 64c5.617188 0 10.984375-1.023438 16-2.800781v8.59375c-1.984375 3.0625-7.496094 10.207031-16 10.207031s-14.015625-7.144531-16-10.207031v-8.59375c5.015625 1.777343 10.382812 2.800781 16 2.800781zm-72 42.105469c0-7.113281 4.777344-13.433594 11.601562-15.386719l32.957032-9.414062c4.640625 6.046874 13.671875 14.695312 27.441406 14.695312s22.800781-8.648438 27.441406-14.703125l32.957032 9.414063c6.128906 1.753906 10.402343 7.082031 11.257812 13.28125h-7.65625c-13.230469 0-24 10.769531-24 24 0 2.816406.574219 5.488281 1.472656 8h-113.472656zm-32 45.894531h248v16h-248zm16 64h24v-16h-24v-16h208v16h-168v16h168v96h-19.054688l-16-32h-137.890624l-16 32h-19.054688zm171.054688 96h-134.109376l8-16h118.109376zm0 0"/></svg>